<?xml version="1.0" encoding="iso-8859-1"?>
<!-- Uploaded to: SVG Repo, www.svgrepo.com, Generator: SVG Repo Mixer Tools -->
<svg version="1.1" id="Layer_1" xmlns="http://www.w3.org/2000/svg" xmlns:xlink="http://www.w3.org/1999/xlink" 
	 viewBox="0 0 512 512" xml:space="preserve">
<path style="fill:#5A6B96;" d="M458.555,494.154H176.367c-23.613,0-42.756-19.143-42.756-42.756l0,0h367.699l0,0
	C501.311,475.011,482.169,494.154,458.555,494.154z"/>
<path style="fill:#EFEFEF;" d="M436.612,250.131H198.311c-17.562,0-31.8,14.238-31.8,31.8v169.468h301.9V281.93
	C468.412,264.367,454.175,250.131,436.612,250.131z"/>
<path style="fill:#45CCFF;" d="M115.865,226.28H28.437c-9.802,0-17.747-7.946-17.747-17.747V35.594
	c0-9.802,7.946-17.747,17.747-17.747h87.428c9.802,0,17.747,7.946,17.747,17.747v172.939
	C133.612,218.335,125.667,226.28,115.865,226.28z"/>
<rect x="10.689" y="60.602" style="fill:#EFEFEF;" width="122.923" height="122.923"/>
<g>
	<circle style="fill:#FBC640;" cx="317.461" cy="350.768" r="64.134"/>
	<circle style="fill:#FBC640;" cx="72.15" cy="122.068" r="26.722"/>
</g>
<g>
	<path style="fill:#231F20;" d="M501.311,440.709h-22.209V281.93c0-23.428-19.061-42.489-42.489-42.489H198.311
		c-23.428,0-42.489,19.061-42.489,42.489v158.779h-22.211c-5.902,0-10.689,4.785-10.689,10.689
		c0,29.469,23.975,53.445,53.445,53.445h282.188c29.469,0,53.445-23.975,53.445-53.445C512,445.495,507.214,440.709,501.311,440.709
		z M177.2,281.93c0-11.64,9.469-21.111,21.111-21.111h238.301c11.641,0,21.111,9.47,21.111,21.111v158.779H177.2V281.93z
		 M458.555,483.465H176.367c-13.935,0-25.823-8.935-30.235-21.378H488.79C484.379,474.529,472.49,483.465,458.555,483.465z"/>
	<path style="fill:#231F20;" d="M144.301,208.534v-25.008V60.603V35.594c0-15.68-12.757-28.437-28.437-28.437H28.437
		C12.757,7.157,0,19.913,0,35.594v25.008v122.923v25.008c0,15.68,12.757,28.437,28.437,28.437h87.428
		C131.543,236.969,144.301,224.213,144.301,208.534z M21.378,71.291h101.545v101.545H21.378V71.291z M28.437,28.535h87.428
		c3.893,0,7.059,3.166,7.059,7.059v14.319H21.378V35.594C21.378,31.702,24.544,28.535,28.437,28.535z M21.378,208.534v-14.319
		h101.545v14.319c0,3.892-3.166,7.059-7.059,7.059H28.437C24.544,215.592,21.378,212.425,21.378,208.534z"/>
	<path style="fill:#231F20;" d="M133.641,378.798c2.246-5.459-0.36-11.705-5.819-13.951c-40.573-16.685-69.559-53.967-75.647-97.297
		c-0.822-5.846-6.222-9.918-12.072-9.098c-5.846,0.822-9.918,6.226-9.097,12.072c7.139,50.816,41.121,94.534,88.685,114.095
		c1.331,0.547,2.708,0.806,4.062,0.806C127.956,385.425,131.943,382.928,133.641,378.798z"/>
	<path style="fill:#231F20;" d="M176.256,126.156c39.957,0.415,77.496,20.257,100.416,53.077c2.078,2.977,5.398,4.57,8.772,4.57
		c2.113,0,4.248-0.625,6.111-1.926c4.84-3.38,6.023-10.043,2.643-14.883c-26.866-38.469-70.873-61.728-117.722-62.214
		c-0.037,0-0.075,0-0.112,0c-5.852,0-10.625,4.713-10.686,10.578C165.618,121.261,170.354,126.095,176.256,126.156z"/>
	<path style="fill:#231F20;" d="M292.305,210.032l0.25,0.741c1.499,4.47,5.665,7.294,10.133,7.294c1.127,0,2.272-0.18,3.4-0.558
		c5.597-1.877,8.613-7.935,6.736-13.532l-0.28-0.826c-1.901-5.589-7.974-8.581-13.561-6.68
		C293.394,198.371,290.406,204.443,292.305,210.032z"/>
	<path style="fill:#231F20;" d="M317.461,275.941c-41.257,0-74.823,33.565-74.823,74.823s33.565,74.823,74.823,74.823
		s74.823-33.565,74.823-74.823S358.719,275.941,317.461,275.941z M317.461,404.208c-29.469,0-53.445-23.975-53.445-53.445
		c0-29.469,23.975-53.445,53.445-53.445c29.469,0,53.445,23.975,53.445,53.445C370.906,380.233,346.931,404.208,317.461,404.208z"/>
	<path style="fill:#231F20;" d="M72.15,84.652c-20.629,0-37.411,16.783-37.411,37.411s16.783,37.411,37.411,37.411
		s37.411-16.783,37.411-37.411S92.779,84.652,72.15,84.652z M72.15,138.097c-8.841,0-16.033-7.193-16.033-16.033
		s7.193-16.033,16.033-16.033s16.033,7.193,16.033,16.033S80.991,138.097,72.15,138.097z"/>
</g>
</svg>